<svg xmlns="http://www.w3.org/2000/svg" width="85.86" height="90.537" viewBox="0 0 85.86 90.537">
  <g id="expert_1_" data-name="expert (1)" transform="translate(-0.5)">
    <path id="Path_5672" data-name="Path 5672" d="M86.361,353.29l-11.384-1.618-5.022-9.934-5.022,9.934-8.24,1.172-8.239-1.172-5.022-9.934-5.022,9.934-8.24,1.172-8.239-1.172-5.022-9.934-5.022,9.934L.5,353.29l8.242,7.843-1.93,10.712,10.095-4.91L27,371.843l-1.93-10.709,5.1-4.85,5.1,4.85-1.93,10.712,10.094-4.91,10.095,4.907-1.93-10.709,5.1-4.85,5.1,4.85-1.93,10.712,10.094-4.91,10.095,4.907-1.93-10.709Zm0,0" transform="translate(0 -281.308)" fill="#113c8c"/>
    <path id="Path_5673" data-name="Path 5673" d="M175.411,168.563a18.567,18.567,0,0,0-37.134,0v13.262h37.134Zm0,0" transform="translate(-113.414 -123.472)" fill="#0670f4"/>
    <path id="Path_5674" data-name="Path 5674" d="M194.8,13.262a13.262,13.262,0,1,0-13.262,13.262A13.278,13.278,0,0,0,194.8,13.262Zm0,0" transform="translate(-138.109)" fill="#0670f4"/>
  </g>
</svg>
