<svg xmlns="http://www.w3.org/2000/svg" width="70.879" height="70.879" viewBox="0 0 70.879 70.879">
  <g id="Maintanance" transform="translate(-4 -4)">
    <path id="Path_5665" data-name="Path 5665" d="M49.112,29.14V12h-5.3a3.754,3.754,0,0,1,.233,1.266v8.86h1.266a1.266,1.266,0,0,1,1.266,1.266v4.77a21.343,21.343,0,0,1,2.531.978Z" transform="translate(10.579 2.126)" fill="#0670f4"/>
    <path id="Path_5666" data-name="Path 5666" d="M5.266,52.5H24.251v-8.86a1.266,1.266,0,0,1,1.266-1.266h4.769a21.3,21.3,0,0,1,1.542-3.725l-3.372-3.371a1.266,1.266,0,0,1,0-1.791l7.16-7.16a1.266,1.266,0,0,1,1.791,0L40.777,29.7A21.293,21.293,0,0,1,44.5,28.162v-4.77a1.266,1.266,0,0,1,1.266-1.266H52.1v-8.86A1.266,1.266,0,0,0,50.831,12H5.266A1.266,1.266,0,0,0,4,13.266v6.328H41.971v2.531H4V51.237A1.266,1.266,0,0,0,5.266,52.5ZM47.034,14.531h2.531v2.531H47.034ZM9.063,17.063H6.531V14.531H9.063Zm5.063,0H11.594V14.531h2.531Zm5.063,0H16.657V14.531h2.531Z" transform="translate(0 2.126)" fill="#0670f4"/>
    <path id="Path_5667" data-name="Path 5667" d="M70.1,49.845V42.251h-4.46A1.266,1.266,0,0,1,64.41,41.3a18.813,18.813,0,0,0-2.025-4.881,1.266,1.266,0,0,1,.195-1.539l3.154-3.153-5.372-5.372-3.153,3.154a1.273,1.273,0,0,1-1.538.195,18.891,18.891,0,0,0-4.882-2.025,1.266,1.266,0,0,1-.949-1.226V22H42.251v4.46a1.266,1.266,0,0,1-.949,1.226,18.891,18.891,0,0,0-4.882,2.025,1.266,1.266,0,0,1-1.538-.195l-3.153-3.154-5.372,5.372,3.154,3.153a1.266,1.266,0,0,1,.195,1.539,18.813,18.813,0,0,0-2.025,4.881,1.266,1.266,0,0,1-1.226.949H22V49.85h4.46a1.266,1.266,0,0,1,1.226.949,18.813,18.813,0,0,0,2.025,4.881,1.266,1.266,0,0,1-.195,1.539l-3.154,3.153,5.372,5.372,3.153-3.154a1.266,1.266,0,0,1,1.538-.195,18.891,18.891,0,0,0,4.882,2.025,1.266,1.266,0,0,1,.949,1.226V70.1H49.85v-4.46A1.266,1.266,0,0,1,50.8,64.41a18.891,18.891,0,0,0,4.882-2.025,1.273,1.273,0,0,1,1.538.195l3.153,3.154,5.372-5.372L62.59,57.209a1.266,1.266,0,0,1-.195-1.539,18.813,18.813,0,0,0,2.025-4.881,1.266,1.266,0,0,1,1.226-.949ZM46.048,62.5A16.454,16.454,0,1,1,62.5,46.048,16.454,16.454,0,0,1,46.048,62.5Z" transform="translate(4.783 4.783)" fill="#0d3a8f"/>
    <circle id="Ellipse_208" data-name="Ellipse 208" cx="8.5" cy="8.5" r="8.5" transform="translate(42.439 42.439)" fill="#0d3a8f"/>
    <path id="Path_5668" data-name="Path 5668" d="M58.1,5.266A1.266,1.266,0,0,0,56.831,4H11.266A1.266,1.266,0,0,0,10,5.266v6.328H58.1Zm-43.034,3.8H12.531V6.531h2.531Zm5.063,0H17.594V6.531h2.531Zm5.063,0H22.657V6.531h2.531Zm30.377,0H53.034V6.531h2.531Z" transform="translate(1.594)" fill="#0670f4"/>
    <path id="Path_5669" data-name="Path 5669" d="M43.923,30A13.923,13.923,0,1,0,57.845,43.923,13.923,13.923,0,0,0,43.923,30Zm0,25.314A11.391,11.391,0,1,1,55.314,43.923,11.391,11.391,0,0,1,43.923,55.314Z" transform="translate(6.908 6.908)" fill="#0d3a8f"/>
  </g>
</svg>
