<svg xmlns="http://www.w3.org/2000/svg" width="77.702" height="65.244" viewBox="0 0 77.702 65.244">
  <g id="programming" transform="translate(0 -41.044)">
    <path id="Path_5670" data-name="Path 5670" d="M0,177.711v44.5H77.7v-44.5Zm46.7,14.654,3.219-3.219,10.767,10.767L49.92,210.679,46.7,207.46l7.548-7.548Zm-6.834-7.515,4.444.988-6.475,29.138-4.444-.988Zm-12.084,4.3L31,192.365l-7.548,7.548L31,207.46l-3.219,3.219L17.016,199.912Z" transform="translate(0 -115.926)" fill="#0670f4"/>
    <path id="Path_5671" data-name="Path 5671" d="M77.7,57.232V41.044H0V57.232Zm-62.081-5.85H11.068V46.829h4.553Zm9.516,0H20.584V46.829h4.553Zm9.515,0H30.1V46.829h4.553Z" transform="translate(0 0)" fill="#113c8c"/>
  </g>
</svg>
